<svg xmlns="http://www.w3.org/2000/svg" width="194.409" height="259.128" viewBox="0 0 194.409 259.128">
  <g id="g10" transform="translate(-46.427)">
    <path id="path106" d="M487.236-147.988h76.708v-10.588H487.236v10.588" transform="translate(-390.784 406.771)" fill="#f29f04"/>
    <path id="path108" d="M538.718-142.312h42.731a.346.346,0,0,0,.346-.345.346.346,0,0,0-.346-.346H538.718a.346.346,0,0,0-.346.346.345.345,0,0,0,.346.345" transform="translate(-442.265 401.44)" fill="#d97803"/>
    <path id="path110" d="M556.359-147.823a.346.346,0,0,0,.346-.345v-10.588a.347.347,0,0,0-.346-.346.346.346,0,0,0-.346.346v10.588a.345.345,0,0,0,.346.345" transform="translate(-428.778 406.951)" fill="#d97803"/>
    <path id="path112" d="M565.868-147.823a.346.346,0,0,0,.346-.345v-10.588a.346.346,0,0,0-.346-.346.346.346,0,0,0-.346.346v10.588a.346.346,0,0,0,.346.345" transform="translate(-444.542 406.951)" fill="#d97803"/>
    <path id="path114" d="M578.946-147.823a.346.346,0,0,0,.346-.345v-10.588a.346.346,0,0,0-.346-.346.347.347,0,0,0-.346.346v10.588a.346.346,0,0,0,.346.345" transform="translate(-466.22 406.951)" fill="#d97803"/>
    <path id="path116" d="M590.833-147.823a.346.346,0,0,0,.345-.345v-10.588a.346.346,0,0,0-.345-.346.347.347,0,0,0-.346.346v10.588a.346.346,0,0,0,.346.345" transform="translate(-485.924 406.951)" fill="#d97803"/>
    <path id="path118" d="M508.64-164.087h76.707v-10.589H508.64v10.589" transform="translate(-426.264 412.282)" fill="#f29f04"/>
    <path id="path120" d="M531.484-158.41h61.563a.346.346,0,0,0,.346-.346.347.347,0,0,0-.346-.346H531.484a.346.346,0,0,0-.346.346.346.346,0,0,0,.346.346" transform="translate(-449.108 406.951)" fill="#d97803"/>
    <path id="path122" d="M577.763-163.921a.346.346,0,0,0,.346-.346v-10.589a.346.346,0,0,0-.346-.345.346.346,0,0,0-.345.345v10.589a.346.346,0,0,0,.345.346" transform="translate(-464.259 412.462)" fill="#d97803"/>
    <path id="path124" d="M587.273-163.921a.346.346,0,0,0,.346-.346v-10.589a.346.346,0,0,0-.346-.345.346.346,0,0,0-.346.345v10.589a.346.346,0,0,0,.346.346" transform="translate(-480.023 412.462)" fill="#d97803"/>
    <path id="path126" d="M600.35-163.921a.346.346,0,0,0,.345-.346v-10.589a.346.346,0,0,0-.345-.345.346.346,0,0,0-.346.345v10.589a.346.346,0,0,0,.346.346" transform="translate(-501.701 412.462)" fill="#d97803"/>
    <path id="path128" d="M612.237-163.921a.346.346,0,0,0,.345-.346v-10.589a.346.346,0,0,0-.345-.345.346.346,0,0,0-.346.345v10.589a.346.346,0,0,0,.346.346" transform="translate(-521.405 412.462)" fill="#d97803"/>
    <path id="path130" d="M499.315-180.187h76.707v-10.588H499.315v10.588" transform="translate(-410.806 417.793)" fill="#f29f04"/>
    <path id="path132" d="M550.8-174.509h42.73a.346.346,0,0,0,.345-.346.346.346,0,0,0-.345-.345H550.8a.346.346,0,0,0-.345.345.346.346,0,0,0,.345.346" transform="translate(-462.287 412.462)" fill="#d97803"/>
    <path id="path134" d="M568.436-180.02a.347.347,0,0,0,.346-.346v-10.588a.346.346,0,0,0-.346-.345.346.346,0,0,0-.345.345v10.588a.346.346,0,0,0,.345.346" transform="translate(-448.799 417.973)" fill="#d97803"/>
    <path id="path136" d="M577.948-180.02a.346.346,0,0,0,.346-.346v-10.588a.346.346,0,0,0-.346-.345.346.346,0,0,0-.346.345v10.588a.346.346,0,0,0,.346.346" transform="translate(-464.564 417.973)" fill="#d97803"/>
    <path id="path138" d="M591.021-180.02a.347.347,0,0,0,.346-.346v-10.588a.346.346,0,0,0-.346-.345.345.345,0,0,0-.345.345v10.588a.346.346,0,0,0,.345.346" transform="translate(-486.238 417.973)" fill="#d97803"/>
    <path id="path140" d="M602.91-180.02a.347.347,0,0,0,.346-.346v-10.588a.346.346,0,0,0-.346-.345.346.346,0,0,0-.346.345v10.588a.346.346,0,0,0,.346.346" transform="translate(-505.945 417.973)" fill="#d97803"/>
    <path id="path142" d="M518.849-163.984h76.707v-10.589H518.849v10.589" transform="translate(-443.188 412.247)" fill="#f29f04"/>
    <path id="path144" d="M570.331-158.308h42.73a.346.346,0,0,0,.346-.346.346.346,0,0,0-.346-.346h-42.73a.346.346,0,0,0-.346.346.345.345,0,0,0,.346.346" transform="translate(-494.669 406.916)" fill="#d97803"/>
    <path id="path146" d="M587.971-163.819a.346.346,0,0,0,.346-.345v-10.589a.347.347,0,0,0-.346-.346.346.346,0,0,0-.345.346v10.589a.345.345,0,0,0,.345.345" transform="translate(-481.181 412.427)" fill="#d97803"/>
    <path id="path148" d="M597.481-163.819a.346.346,0,0,0,.346-.345v-10.589a.347.347,0,0,0-.346-.346.346.346,0,0,0-.345.346v10.589a.346.346,0,0,0,.345.345" transform="translate(-496.946 412.427)" fill="#d97803"/>
    <path id="path150" d="M610.559-163.819a.346.346,0,0,0,.346-.345v-10.589a.346.346,0,0,0-.346-.346.346.346,0,0,0-.346.346v10.589a.346.346,0,0,0,.346.345" transform="translate(-518.624 412.427)" fill="#d97803"/>
    <path id="path152" d="M622.446-163.819a.346.346,0,0,0,.346-.345v-10.589a.346.346,0,0,0-.346-.346.346.346,0,0,0-.346.346v10.589a.346.346,0,0,0,.346.345" transform="translate(-538.329 412.427)" fill="#d97803"/>
    <path id="path154" d="M507.864-180.084h76.707v-10.589H507.864v10.589" transform="translate(-424.977 417.758)" fill="#f29f04"/>
    <path id="path156" d="M559.345-174.408h42.73a.346.346,0,0,0,.346-.346.346.346,0,0,0-.346-.346h-42.73a.346.346,0,0,0-.345.346.346.346,0,0,0,.345.346" transform="translate(-476.459 412.427)" fill="#d97803"/>
    <path id="path158" d="M576.985-179.919a.346.346,0,0,0,.346-.345v-10.589a.346.346,0,0,0-.346-.346.346.346,0,0,0-.345.346v10.589a.346.346,0,0,0,.345.345" transform="translate(-462.971 417.938)" fill="#d97803"/>
    <path id="path160" d="M586.5-179.919a.346.346,0,0,0,.345-.345v-10.589a.346.346,0,0,0-.345-.346.346.346,0,0,0-.346.346v10.589a.346.346,0,0,0,.346.345" transform="translate(-478.736 417.938)" fill="#d97803"/>
    <path id="path162" d="M599.573-179.919a.346.346,0,0,0,.346-.345v-10.589a.346.346,0,0,0-.346-.346.346.346,0,0,0-.346.346v10.589a.346.346,0,0,0,.346.345" transform="translate(-500.412 417.938)" fill="#d97803"/>
    <path id="path164" d="M611.461-179.919a.346.346,0,0,0,.346-.345v-10.589a.346.346,0,0,0-.346-.346.346.346,0,0,0-.346.346v10.589a.346.346,0,0,0,.346.345" transform="translate(-520.118 417.938)" fill="#d97803"/>
    <path id="path166" d="M523.18-196.184h76.707v-10.588H523.18v10.588" transform="translate(-450.366 423.269)" fill="#f29f04"/>
    <path id="path168" d="M532.184-190.506H602.85a.347.347,0,0,0,.346-.346.346.346,0,0,0-.346-.346H532.184a.346.346,0,0,0-.346.346.346.346,0,0,0,.346.346" transform="translate(-459.37 417.938)" fill="#d97803"/>
    <path id="path170" d="M592.3-196.017a.347.347,0,0,0,.346-.346v-10.588a.346.346,0,0,0-.346-.346.345.345,0,0,0-.346.346v10.588a.346.346,0,0,0,.346.346" transform="translate(-488.36 423.449)" fill="#d97803"/>
    <path id="path172" d="M601.811-196.017a.346.346,0,0,0,.346-.346v-10.588a.346.346,0,0,0-.346-.346.345.345,0,0,0-.346.346v10.588a.346.346,0,0,0,.346.346" transform="translate(-504.123 423.449)" fill="#d97803"/>
    <path id="path174" d="M614.889-196.017a.346.346,0,0,0,.345-.346v-10.588a.346.346,0,0,0-.345-.346.346.346,0,0,0-.346.346v10.588a.347.347,0,0,0,.346.346" transform="translate(-525.801 423.449)" fill="#d97803"/>
    <path id="path176" d="M626.776-196.017a.346.346,0,0,0,.345-.346v-10.588a.346.346,0,0,0-.345-.346.346.346,0,0,0-.346.346v10.588a.346.346,0,0,0,.346.346" transform="translate(-545.505 423.449)" fill="#d97803"/>
    <path id="path178" d="M511.1-212.282h76.706V-222.87H511.1v10.588" transform="translate(-430.345 428.78)" fill="#f29f04"/>
    <path id="path180" d="M562.584-206.6h42.729a.347.347,0,0,0,.346-.346.346.346,0,0,0-.346-.346H562.584a.346.346,0,0,0-.346.346.346.346,0,0,0,.346.346" transform="translate(-481.826 423.449)" fill="#d97803"/>
    <path id="path182" d="M580.225-212.116a.346.346,0,0,0,.346-.346V-223.05a.346.346,0,0,0-.346-.346.347.347,0,0,0-.346.346v10.588a.347.347,0,0,0,.346.346" transform="translate(-468.339 428.961)" fill="#d97803"/>
    <path id="path184" d="M589.736-212.116a.346.346,0,0,0,.345-.346V-223.05a.346.346,0,0,0-.345-.346.347.347,0,0,0-.346.346v10.588a.347.347,0,0,0,.346.346" transform="translate(-484.105 428.961)" fill="#d97803"/>
    <path id="path186" d="M602.811-212.116a.346.346,0,0,0,.346-.346V-223.05a.346.346,0,0,0-.346-.346.346.346,0,0,0-.345.346v10.588a.346.346,0,0,0,.345.346" transform="translate(-505.781 428.961)" fill="#d97803"/>
    <path id="path188" d="M614.7-212.116a.347.347,0,0,0,.346-.346V-223.05a.347.347,0,0,0-.346-.346.346.346,0,0,0-.346.346v10.588a.346.346,0,0,0,.346.346" transform="translate(-525.485 428.961)" fill="#d97803"/>
    <path id="path190" d="M532.505-228.381h76.707v-10.588H532.505v10.588" transform="translate(-465.825 434.291)" fill="#f29f04"/>
    <path id="path192" d="M555.35-222.7h61.564a.345.345,0,0,0,.346-.345.346.346,0,0,0-.346-.346H555.35a.347.347,0,0,0-.346.346.346.346,0,0,0,.346.345" transform="translate(-488.67 428.961)" fill="#d97803"/>
    <path id="path194" d="M601.629-228.216a.345.345,0,0,0,.346-.345v-10.588a.346.346,0,0,0-.346-.346.347.347,0,0,0-.346.346v10.588a.346.346,0,0,0,.346.345" transform="translate(-503.82 434.472)" fill="#d97803"/>
    <path id="path196" d="M611.137-228.216a.346.346,0,0,0,.346-.345v-10.588a.347.347,0,0,0-.346-.346.346.346,0,0,0-.345.346v10.588a.345.345,0,0,0,.345.345" transform="translate(-519.583 434.472)" fill="#d97803"/>
    <path id="path198" d="M624.213-228.216a.346.346,0,0,0,.346-.345v-10.588a.346.346,0,0,0-.346-.346.346.346,0,0,0-.346.346v10.588a.346.346,0,0,0,.346.345" transform="translate(-541.259 434.472)" fill="#d97803"/>
    <path id="path200" d="M636.1-228.216a.346.346,0,0,0,.346-.345v-10.588a.347.347,0,0,0-.346-.346.346.346,0,0,0-.345.346v10.588a.346.346,0,0,0,.345.345" transform="translate(-560.966 434.472)" fill="#d97803"/>
    <path id="path202" d="M523.18-244.48h76.707v-10.588H523.18v10.588" transform="translate(-450.366 439.802)" fill="#f29f04"/>
    <path id="path204" d="M574.661-238.8h42.73a.346.346,0,0,0,.345-.346.346.346,0,0,0-.345-.346h-42.73a.346.346,0,0,0-.345.346.345.345,0,0,0,.345.346" transform="translate(-501.848 434.472)" fill="#d97803"/>
    <path id="path206" d="M592.3-244.314a.346.346,0,0,0,.346-.346v-10.588a.347.347,0,0,0-.346-.346.346.346,0,0,0-.346.346v10.588a.345.345,0,0,0,.346.346" transform="translate(-488.36 439.983)" fill="#d97803"/>
    <path id="path208" d="M601.811-244.314a.346.346,0,0,0,.346-.346v-10.588a.347.347,0,0,0-.346-.346.346.346,0,0,0-.346.346v10.588a.345.345,0,0,0,.346.346" transform="translate(-504.123 439.983)" fill="#d97803"/>
    <path id="path210" d="M614.889-244.314a.346.346,0,0,0,.345-.346v-10.588a.346.346,0,0,0-.345-.346.347.347,0,0,0-.346.346v10.588a.346.346,0,0,0,.346.346" transform="translate(-525.801 439.983)" fill="#d97803"/>
    <path id="path212" d="M626.776-244.314a.346.346,0,0,0,.345-.346v-10.588a.346.346,0,0,0-.345-.346.346.346,0,0,0-.346.346v10.588a.346.346,0,0,0,.346.346" transform="translate(-545.505 439.983)" fill="#d97803"/>
    <path id="path214" d="M514.519-260.579h76.707v-10.589H514.519v10.589" transform="translate(-436.009 445.314)" fill="#f29f04"/>
    <path id="path216" d="M547.424-254.9h54.946a.346.346,0,0,0,.346-.346.347.347,0,0,0-.346-.346H547.424a.346.346,0,0,0-.346.346.346.346,0,0,0,.346.346" transform="translate(-468.914 439.983)" fill="#d97803"/>
    <path id="path218" d="M583.64-260.413a.346.346,0,0,0,.346-.345v-10.589a.346.346,0,0,0-.346-.346.346.346,0,0,0-.345.346v10.589a.346.346,0,0,0,.345.345" transform="translate(-474.002 445.493)" fill="#d97803"/>
    <path id="path220" d="M593.151-260.413a.346.346,0,0,0,.346-.345v-10.589a.346.346,0,0,0-.346-.346.346.346,0,0,0-.346.346v10.589a.346.346,0,0,0,.346.345" transform="translate(-489.767 445.493)" fill="#d97803"/>
    <path id="path222" d="M606.229-260.413a.346.346,0,0,0,.345-.345v-10.589a.346.346,0,0,0-.345-.346.346.346,0,0,0-.346.346v10.589a.346.346,0,0,0,.346.345" transform="translate(-511.445 445.493)" fill="#d97803"/>
    <path id="path224" d="M618.116-260.413a.346.346,0,0,0,.345-.345v-10.589a.346.346,0,0,0-.345-.346.346.346,0,0,0-.346.346v10.589a.346.346,0,0,0,.346.345" transform="translate(-531.15 445.493)" fill="#d97803"/>
    <path id="path226" d="M528.743-276.679H605.45v-10.589H528.743v10.589" transform="translate(-459.588 450.825)" fill="#f29f04"/>
    <path id="path228" d="M580.224-271h42.731a.346.346,0,0,0,.346-.346.346.346,0,0,0-.346-.346H580.224a.346.346,0,0,0-.345.346.346.346,0,0,0,.345.346" transform="translate(-511.07 445.493)" fill="#d97803"/>
    <path id="path230" d="M597.865-276.512a.347.347,0,0,0,.346-.346v-10.589a.346.346,0,0,0-.346-.346.345.345,0,0,0-.346.346v10.589a.346.346,0,0,0,.346.346" transform="translate(-497.583 451.005)" fill="#d97803"/>
    <path id="path232" d="M607.375-276.512a.347.347,0,0,0,.346-.346v-10.589a.346.346,0,0,0-.346-.346.346.346,0,0,0-.346.346v10.589a.346.346,0,0,0,.346.346" transform="translate(-513.346 451.005)" fill="#d97803"/>
    <path id="path234" d="M620.453-276.512a.346.346,0,0,0,.345-.346v-10.589a.345.345,0,0,0-.345-.346.346.346,0,0,0-.346.346v10.589a.347.347,0,0,0,.346.346" transform="translate(-535.024 451.005)" fill="#d97803"/>
    <path id="path236" d="M632.339-276.512a.346.346,0,0,0,.346-.346v-10.589a.345.345,0,0,0-.346-.346.346.346,0,0,0-.346.346v10.589a.347.347,0,0,0,.346.346" transform="translate(-554.728 451.005)" fill="#d97803"/>
    <path id="path238" d="M517.757-292.778h76.708v-10.588H517.757v10.588" transform="translate(-441.378 456.336)" fill="#f29f04"/>
    <path id="path240" d="M543.468-287.1h59.679a.347.347,0,0,0,.346-.346.346.346,0,0,0-.346-.346H543.468a.346.346,0,0,0-.346.346.346.346,0,0,0,.346.346" transform="translate(-467.089 451.005)" fill="#d97803"/>
    <path id="path242" d="M586.879-292.612a.347.347,0,0,0,.346-.346v-10.588a.347.347,0,0,0-.346-.346.346.346,0,0,0-.346.346v10.588a.346.346,0,0,0,.346.346" transform="translate(-479.371 456.516)" fill="#d97803"/>
    <path id="path244" d="M596.39-292.612a.346.346,0,0,0,.346-.346v-10.588a.346.346,0,0,0-.346-.346.347.347,0,0,0-.346.346v10.588a.347.347,0,0,0,.346.346" transform="translate(-495.136 456.516)" fill="#d97803"/>
    <path id="path246" d="M609.465-292.612a.347.347,0,0,0,.346-.346v-10.588a.347.347,0,0,0-.346-.346.346.346,0,0,0-.345.346v10.588a.346.346,0,0,0,.345.346" transform="translate(-516.812 456.516)" fill="#d97803"/>
    <path id="path248" d="M621.353-292.612a.347.347,0,0,0,.346-.346v-10.588a.347.347,0,0,0-.346-.346.347.347,0,0,0-.346.346v10.588a.346.346,0,0,0,.346.346" transform="translate(-536.517 456.516)" fill="#d97803"/>
    <path id="path250" d="M494.8-372.4s-1.01-8.3-12.841-9.519c-4.854-.5-5.75,8.491-5.75,8.491L494.8-372.4" transform="translate(-314.382 483.235)" fill="#8d4237"/>
    <path id="path252" d="M500.876-227.108l-12.3,30.442,41.529,14.6s-.967-10.026-5.457-12.912c-10.609-6.82-6.214-10.533-4.4-22.749s-19.374-9.381-19.374-9.381" transform="translate(-357.822 430.328)" fill="#e5234a"/>
    <path id="path254" d="M384.334-220.162l6.969,32.087,42.541-11.309s-6.441-7.742-11.777-7.6c-12.607.335-11.065-5.208-16.437-16.329s-21.3,3.152-21.3,3.152" transform="translate(-193.007 430.383)" fill="#e5234a"/>
    <path id="path256" d="M484.832-258.6c-.606-.908-37.087-76.369-37.087-76.369s-4.155-17.7-15.369-20.733c-5.4-1.458-13.338,0-13.338,0l-7.881,24.552s25.8,52.107,39.583,83.726c18.366,9.519,34.091-11.176,34.091-11.176" transform="translate(-261.637 474.472)" fill="#4e508d"/>
    <path id="path258" d="M534.368-411.163s-21.673-8.378-21.9-9.259c-2.083-8.146-4.66-42-19.037-46.78-5.655-1.88-3.774,23.939-3.774,23.939l-.91,39.556,35.3,5.92,10.318-13.376" transform="translate(-362.204 512.455)" fill="#e5234a"/>
    <path id="path260" d="M550.8-248.011s22.811-77.458,24.075-83.956c2.9-14.913-11.005-30.615-19.189-30.615s-85.845-2.173-88.764,0c-7.641,5.689-10.311,31.489-1.52,38.062,10,7.475,72.971-2.906,72.971-2.906s-22.54,52.1-21.241,70.019c10.045,10.611,33.669,9.4,33.669,9.4" transform="translate(-384.124 476.938)" fill="#4e508d"/>
    <path id="path262" d="M467.548-365.9h57.863v-6.416H467.548v6.416" transform="translate(-339.303 479.939)" fill="#707070"/>
    <path id="path264" d="M455.245-442.2,438.08-393.7l6.049,2.141,19.306-54.547h0a6.417,6.417,0,0,0-8.19,3.908" transform="translate(-257.946 505.327)" fill="#707070"/>
    <path id="path266" d="M534.7-382.975l62.313-17.584s10.587-50.838.205-63.044c-2.512-2.963-4.456-4.74-9.846-5.963a68.394,68.394,0,0,0-23.263-.687,78.794,78.794,0,0,0-9.017,1.706c-8.75,5.432-20.392,85.571-20.392,85.571" transform="translate(-459.828 513.693)" fill="#e5234a"/>
    <path id="path268" d="M567.831-519.764s2.5,22.061-4.958,24.543-18.768-7.671-18.768-7.671l-1.235-18.266,24.962,1.394" transform="translate(-431.663 530.892)" fill="#8d4237"/>
    <path id="path270" d="M575.764-489.7l-.976,15.009s-12.769,1.873-15.578-2.146c-.638-.915,5.014-17.2,5.014-17.2l11.54,4.336" transform="translate(-449.907 521.608)" fill="#8d4237"/>
    <path id="path272" d="M577.707-528.6c.56,1.735.912,5.4-2.921,6.367s-13.4-3.743-14.124-1.884c-1.129,2.889-3.685,6.4-6.2,7.059a38.424,38.424,0,0,0-1.5,4.578s.917,7.818-3.017,11.606c-2.476,2.382-13.43-3.2-13.388-9.2.04-5.748,2.577-9.268,5.048-12.182s2.453-5.813,3.544-7.879,4.747-5.169,8.154-4.15c4.175,1.248,4.8-3.6,9.81-.763,4.671,2.643,12.882,1.151,14.593,6.448" transform="translate(-437.328 535.958)" fill="#1c3353"/>
    <path id="path274" d="M566.622-484.084c-2.363-.406-6.913-4.382-6.913-4.382l6.818,7.688s-.017-2.167.095-3.306" transform="translate(-441.126 519.7)" fill="#6d2922"/>
    <path id="path276" d="M544.561-505.582a.994.994,0,0,0,.643,1.217c.45.072.892-.357.988-.958a.993.993,0,0,0-.643-1.216c-.449-.072-.892.357-.988.957" transform="translate(-410.74 525.89)" fill="#292929"/>
    <path id="path278" d="M556-506.421a1,1,0,0,0,.643,1.217c.45.071.892-.358.988-.958a.992.992,0,0,0-.643-1.216c-.451-.072-.892.356-.988.957" transform="translate(-429.699 526.177)" fill="#292929"/>
    <path id="path280" d="M549.535-499.115a4.255,4.255,0,0,0,1.735-.315c.941-.451-.011-3.706-.465-5.084a.259.259,0,0,0-.328-.166.26.26,0,0,0-.166.328c.715,2.173,1.064,4.3.734,4.454a4.586,4.586,0,0,1-1.991.243.255.255,0,0,0-.285.232.259.259,0,0,0,.232.285c.022,0,.232.023.534.023" transform="translate(-418.979 525.255)" fill="#6d2922"/>
    <path id="path282" d="M576.5-506.794c-.116-.036-.687-2.44-3.045-2.367-2.1.065-2.686,3.423-2.115,4.259a5.814,5.814,0,0,0,3.9,2.764l1.264-4.656" transform="translate(-458.515 526.785)" fill="#8d4237"/>
    <path id="path284" d="M573.434-504.533a.259.259,0,0,0,.26-.253.957.957,0,0,1,.363-.872c.481-.279,1.392.1,1.7.268a.259.259,0,0,0,.352-.1.258.258,0,0,0-.1-.352c-.14-.077-1.4-.734-2.21-.263a1.426,1.426,0,0,0-.623,1.31.26.26,0,0,0,.253.266h.006" transform="translate(-459.502 525.798)" fill="#6d2922"/>
    <path id="path286" d="M575.607-503.745a.26.26,0,0,0,.253-.2c.037-.151-.039-.288-.2-.587a4.136,4.136,0,0,1-.556-1.461.255.255,0,0,0-.286-.232.261.261,0,0,0-.231.287,4.558,4.558,0,0,0,.617,1.655c.056.1.125.228.146.282a.259.259,0,0,0,.2.247.24.24,0,0,0,.06.008" transform="translate(-460.155 525.78)" fill="#6d2922"/>
    <path id="path288" d="M553.172-492.836a4.756,4.756,0,0,0,1.227-.156.259.259,0,0,0,.173-.324.259.259,0,0,0-.324-.174c-.119.037-2.953.853-3.87-1.824a.262.262,0,0,0-.33-.161.259.259,0,0,0-.161.33,3.236,3.236,0,0,0,3.285,2.31" transform="translate(-422.618 522.104)" fill="#6d2922"/>
    <path id="path290" d="M555.747-470.252c3.157,3.349,11.67,11.583,18.443,10.745,6.581-.827,5.6-7.214,4.82-10.059a68.394,68.394,0,0,0-23.263-.687" transform="translate(-451.47 513.693)" fill="#8d4237"/>
    <path id="path292" d="M572.3-452.445a14.373,14.373,0,0,0,5.2-.877.26.26,0,0,0,.133-.342.259.259,0,0,0-.342-.134c-.095.041-9.659,4.045-19.129-5.852a.263.263,0,0,0-.367-.008.26.26,0,0,0-.008.367c5.337,5.579,10.723,6.846,14.512,6.846" transform="translate(-450.852 509.863)" fill="#e5234a"/>
    <path id="path294" d="M529.205-376.613c1.459-5.023-13.554-9.036-19.28-8.126s-3.6,8.638-3.6,8.638,11.643-.512,22.885-.512" transform="translate(-368.443 484.236)" fill="#8d4237"/>
    <path id="path296" d="M536.252-407.928a.262.262,0,0,0,.046,0,.259.259,0,0,0,.211-.3,8.731,8.731,0,0,1,.93-5.646,15.7,15.7,0,0,0,1.314-4.251c.532-3.786-1.438-6.066-3.343-8.271-.3-.35-.6-.7-.89-1.048-1.954-2.388-1.244-9.4-1.236-9.47a.262.262,0,0,0-.232-.286.253.253,0,0,0-.286.232c-.031.3-.739,7.3,1.351,9.853.289.354.593.706.9,1.059,1.83,2.117,3.723,4.306,3.224,7.859a15.024,15.024,0,0,1-1.278,4.118,9.278,9.278,0,0,0-.964,5.941.261.261,0,0,0,.256.215" transform="translate(-395.53 502.153)" fill="#b70b39"/>
    <path id="path298" d="M573.587-426.959a51.871,51.871,0,0,0-1,17.808c.718,6.107,21.283,7.554,21.283,7.554s-24.193,7.782-28.708,2.319c-4.609-5.575,8.426-27.681,8.426-27.681" transform="translate(-471.31 498.645)" fill="#b70b39"/>
    <path id="path300" d="M603.307-414.334s-38.312-2.2-45.131-2.106c-3.751.054,9.75-27.414,11.188-31.438,3.077-8.612-5.622-18.745-8.6-19.6-8.611-2.481-17.661,13.72-22.623,27.878s-5.546,31.818-5.546,31.818-2.206,10.968,6.99,11.844,65.7-3.524,65.7-3.524.358-12.681-1.977-14.87" transform="translate(-461.825 512.603)" fill="#e5234a"/>
    <path id="path302" d="M557.987-359.21c13.853,0,45.255-2.161,46.838-2.271a.261.261,0,0,0,.242-.277.261.261,0,0,0-.278-.241c-.463.032-46.368,3.194-52.469,2a.262.262,0,0,0-.3.2.26.26,0,0,0,.205.306,37.871,37.871,0,0,0,5.767.28" transform="translate(-474.507 476.408)" fill="#b70b39"/>
    <path id="path304" d="M581.285-400.98a.259.259,0,0,0,.258-.231.259.259,0,0,0-.227-.288c-.246-.028-24.76-2.84-41.974-3.062a1.391,1.391,0,0,1-1.108-.544,1.123,1.123,0,0,1-.166-1.011c2.923-9.636,5.577-17.457,7.889-23.247.231-.578.565-.922.938-.971a1.054,1.054,0,0,1,.93.491,1.874,1.874,0,0,1,.148,1.895.26.26,0,0,0,.128.345.261.261,0,0,0,.345-.127,2.391,2.391,0,0,0-.2-2.419,1.547,1.547,0,0,0-1.415-.7c-.33.041-.944.265-1.354,1.293-2.318,5.8-4.976,13.638-7.9,23.289a1.629,1.629,0,0,0,.242,1.469,1.912,1.912,0,0,0,1.522.756c17.187.222,41.676,3.031,41.92,3.06l.03,0" transform="translate(-441.437 499.98)" fill="#b70b39"/>
    <path id="path306" d="M461.567-260.385c.129-.407,12.9-40.8,14.608-51.271l-.529-.087c-1.7,10.437-14.463,50.789-14.592,51.194l.512.163" transform="translate(-285.797 459.203)" fill="#f2e1d1"/>
    <path id="path308" d="M584.591-246.18l.015-.537c-.2-.005-20.156-.678-26.227-6.564-1.689-6.928,11.678-42.109,18.113-59.044,1.885-4.957,3.129-8.233,3.364-9.12a4.652,4.652,0,0,0-1.575-4.435,3.267,3.267,0,0,0-3.329-.85c-2.273.89-39.421,5.37-47.77,6.2-12.307,1.22-19.977.328-22.79-2.646-6.049-6.4-1.984-16.933-1.942-17.038l-.5-.2c-.043.109-4.23,10.964,2.05,17.6,2.934,3.1,10.751,4.045,23.233,2.811,7.073-.7,45.5-5.289,47.913-6.231a2.744,2.744,0,0,1,2.776.751,4.107,4.107,0,0,1,1.413,3.9c-.228.861-1.536,4.3-3.346,9.067-6.478,17.047-19.956,52.519-18.112,59.444l.018.07.053.052c6.156,6.081,25.807,6.744,26.642,6.77" transform="translate(-420.198 469.018)" fill="#f2e1d1"/>
    <path id="path310" d="M437.775-215.145c10.811,0,21.76-8.4,21.882-8.5l-.329-.423c-.136.1-13.716,10.519-25.378,7.989-1.769-.385-8.123-20.22-11.712-32.632l-.516.149c.958,3.317,9.45,32.429,12.113,33.007a18.555,18.555,0,0,0,3.938.407" transform="translate(-243.41 437.626)" fill="#f2e1d1"/>
    <g id="Group_6731" data-name="Group 6731" transform="translate(46.427 181.774)">
      <path id="path312" d="M609.2-177.587a38.226,38.226,0,0,0,30.39,44.709,38.226,38.226,0,0,0,44.71-30.39,38.227,38.227,0,0,0-30.39-44.71,38.227,38.227,0,0,0-44.71,30.391" transform="translate(-608.512 208.856)" fill="#f29f04"/>
      <path id="path314" d="M649.386-199.624a31.844,31.844,0,0,1,5.957.563,31.862,31.862,0,0,1,25.3,37.225,31.713,31.713,0,0,1-25.016,25.254,31.613,31.613,0,0,1-12.208.046A31.635,31.635,0,0,1,621-153.383a31.513,31.513,0,0,1-2.886-20.377,31.858,31.858,0,0,1,6.77-14.372A31.882,31.882,0,0,1,649.386-199.624Zm.033,65.018a32.9,32.9,0,0,0,6.475-.644,33.068,33.068,0,0,0,26.083-26.332A33.223,33.223,0,0,0,655.6-200.395,33.234,33.234,0,0,0,623.845-189a33.223,33.223,0,0,0-7.062,14.987,32.863,32.863,0,0,0,3.011,21.246,32.982,32.982,0,0,0,23.37,17.566,33.38,33.38,0,0,0,6.254.594" transform="translate(-611.147 206.227)" fill="#d97803"/>
      <path id="path318" d="M614.945-133.27a.326.326,0,0,0,.091-.012A38.33,38.33,0,0,0,642.869-163.3a38.321,38.321,0,0,0-5.989-28.909A38.322,38.322,0,0,0,612.2-208.419a38.8,38.8,0,0,0-3.847-.538.35.35,0,0,0-.376.314.347.347,0,0,0,.314.376c1.262.112,2.533.289,3.78.527a37.924,37.924,0,0,1,30.115,44.305,37.644,37.644,0,0,1-27.335,29.485.347.347,0,0,0-.244.424.346.346,0,0,0,.334.255" transform="translate(-566.746 208.958)" fill="#d97803"/>
    </g>
  </g>
</svg>
